<mxfile host="65bd71144e">
    <diagram id="YarAuCnEy327-GBLZ_vi" name="Page-1">
        <mxGraphModel dx="1152" dy="790" grid="1" gridSize="10" guides="1" tooltips="1" connect="1" arrows="1" fold="1" page="1" pageScale="1" pageWidth="827" pageHeight="1169" math="0" shadow="0">
            <root>
                <mxCell id="0"/>
                <mxCell id="1" parent="0"/>
                <mxCell id="6" value="" style="edgeStyle=none;html=1;fontSize=15;" edge="1" parent="1" source="2" target="5">
                    <mxGeometry relative="1" as="geometry"/>
                </mxCell>
                <mxCell id="2" value="inicio" style="ellipse;whiteSpace=wrap;html=1;fontSize=15;" vertex="1" parent="1">
                    <mxGeometry x="354" y="240" width="120" height="80" as="geometry"/>
                </mxCell>
                <mxCell id="10" value="" style="edgeStyle=none;html=1;fontSize=15;entryX=0.5;entryY=0;entryDx=0;entryDy=0;" edge="1" parent="1" source="5" target="13">
                    <mxGeometry relative="1" as="geometry">
                        <mxPoint x="414" y="360" as="targetPoint"/>
                    </mxGeometry>
                </mxCell>
                <mxCell id="5" value="c1=0, c2=0, c3=0, c4=0, c5=0, c6=0, c7=0, c8=0" style="whiteSpace=wrap;html=1;fontSize=15;" vertex="1" parent="1">
                    <mxGeometry x="349" y="360" width="130" height="70" as="geometry"/>
                </mxCell>
                <mxCell id="16" value="" style="edgeStyle=none;html=1;fontSize=15;" edge="1" parent="1" source="13" target="15">
                    <mxGeometry relative="1" as="geometry"/>
                </mxCell>
                <mxCell id="13" value="c1=random.randint(1,12)&lt;br&gt;c2=random.randint(1,12)&lt;br&gt;c1_com=random.randint(1,12)&lt;br&gt;c2_com=random.randint(1,12)" style="whiteSpace=wrap;html=1;fontSize=15;" vertex="1" parent="1">
                    <mxGeometry x="300" y="460" width="230" height="115" as="geometry"/>
                </mxCell>
                <mxCell id="20" style="edgeStyle=none;html=1;entryX=0.5;entryY=0;entryDx=0;entryDy=0;fontSize=15;" edge="1" parent="1" source="15" target="19">
                    <mxGeometry relative="1" as="geometry"/>
                </mxCell>
                <mxCell id="24" value="" style="edgeStyle=none;html=1;fontSize=15;entryX=0.5;entryY=0;entryDx=0;entryDy=0;" edge="1" parent="1" source="15" target="30">
                    <mxGeometry relative="1" as="geometry">
                        <mxPoint x="660" y="720" as="targetPoint"/>
                        <Array as="points">
                            <mxPoint x="665" y="660"/>
                        </Array>
                    </mxGeometry>
                </mxCell>
                <mxCell id="15" value="c1 == c2" style="rhombus;whiteSpace=wrap;html=1;fontSize=15;" vertex="1" parent="1">
                    <mxGeometry x="374" y="620" width="80" height="80" as="geometry"/>
                </mxCell>
                <mxCell id="25" style="edgeStyle=none;html=1;fontSize=15;entryX=0.5;entryY=0;entryDx=0;entryDy=0;" edge="1" parent="1" source="19" target="15">
                    <mxGeometry relative="1" as="geometry">
                        <mxPoint x="290" y="580" as="targetPoint"/>
                        <Array as="points">
                            <mxPoint x="290" y="761"/>
                            <mxPoint x="290" y="620"/>
                        </Array>
                    </mxGeometry>
                </mxCell>
                <mxCell id="19" value="&lt;span&gt;c2=random.randint(1,12)&lt;/span&gt;" style="whiteSpace=wrap;html=1;fontSize=15;" vertex="1" parent="1">
                    <mxGeometry x="321" y="730" width="185" height="62.5" as="geometry"/>
                </mxCell>
                <mxCell id="28" style="edgeStyle=none;html=1;entryX=0.5;entryY=0;entryDx=0;entryDy=0;fontSize=15;exitX=0.5;exitY=1;exitDx=0;exitDy=0;" edge="1" parent="1" source="30" target="32">
                    <mxGeometry relative="1" as="geometry"/>
                </mxCell>
                <mxCell id="29" value="" style="edgeStyle=none;html=1;fontSize=15;entryX=0.5;entryY=0;entryDx=0;entryDy=0;" edge="1" parent="1" source="30" target="35">
                    <mxGeometry relative="1" as="geometry">
                        <mxPoint x="970" y="760" as="targetPoint"/>
                        <Array as="points">
                            <mxPoint x="925" y="761"/>
                        </Array>
                    </mxGeometry>
                </mxCell>
                <mxCell id="30" value="c1_com == c1 or c1_com== c2" style="rhombus;whiteSpace=wrap;html=1;fontSize=15;" vertex="1" parent="1">
                    <mxGeometry x="595" y="701.25" width="140" height="120" as="geometry"/>
                </mxCell>
                <mxCell id="31" style="edgeStyle=none;html=1;fontSize=15;entryX=0.5;entryY=0;entryDx=0;entryDy=0;exitX=0;exitY=0.5;exitDx=0;exitDy=0;" edge="1" parent="1" source="32" target="30">
                    <mxGeometry relative="1" as="geometry">
                        <mxPoint x="540" y="680" as="targetPoint"/>
                        <Array as="points">
                            <mxPoint x="530" y="901"/>
                            <mxPoint x="530" y="700"/>
                        </Array>
                    </mxGeometry>
                </mxCell>
                <mxCell id="32" value="&lt;span&gt;c1_com=random.randint(1,12)&lt;/span&gt;" style="whiteSpace=wrap;html=1;fontSize=15;" vertex="1" parent="1">
                    <mxGeometry x="560" y="870" width="210" height="62.5" as="geometry"/>
                </mxCell>
                <mxCell id="33" style="edgeStyle=none;html=1;entryX=0.5;entryY=0;entryDx=0;entryDy=0;fontSize=15;exitX=0.5;exitY=1;exitDx=0;exitDy=0;" edge="1" parent="1" source="35" target="37">
                    <mxGeometry relative="1" as="geometry"/>
                </mxCell>
                <mxCell id="34" value="" style="edgeStyle=none;html=1;fontSize=15;" edge="1" parent="1" source="35">
                    <mxGeometry relative="1" as="geometry">
                        <mxPoint x="1050" y="900" as="targetPoint"/>
                    </mxGeometry>
                </mxCell>
                <mxCell id="35" value="c2_com == c1 or c2_com== c2 or c2_com== c1_com" style="rhombus;whiteSpace=wrap;html=1;fontSize=15;" vertex="1" parent="1">
                    <mxGeometry x="855" y="841.25" width="140" height="120" as="geometry"/>
                </mxCell>
                <mxCell id="36" style="edgeStyle=none;html=1;fontSize=15;entryX=0.5;entryY=0;entryDx=0;entryDy=0;exitX=0;exitY=0.5;exitDx=0;exitDy=0;" edge="1" parent="1" source="37" target="35">
                    <mxGeometry relative="1" as="geometry">
                        <mxPoint x="800" y="820" as="targetPoint"/>
                        <Array as="points">
                            <mxPoint x="790" y="1041"/>
                            <mxPoint x="790" y="840"/>
                        </Array>
                    </mxGeometry>
                </mxCell>
                <mxCell id="37" value="&lt;span&gt;c2_com=random.randint(1,12)&lt;/span&gt;" style="whiteSpace=wrap;html=1;fontSize=15;" vertex="1" parent="1">
                    <mxGeometry x="820" y="1010" width="210" height="62.5" as="geometry"/>
                </mxCell>
            </root>
        </mxGraphModel>
    </diagram>
</mxfile>